<svg xmlns="http://www.w3.org/2000/svg" viewBox="0 0 122 103" width="122" height="103">
	<style>
		tspan { white-space:pre }
		.shp0 { fill: #ffffff } 
	</style>
	<g id="Sell &amp; Buy">
		<g id="1">
			<path id="Icon" class="shp0" d="M110.95 1.23L11.05 1.23C5.51 1.23 1 5.74 1 11.28L1 66.18C1 71.72 5.51 76.23 11.05 76.23L45.03 76.23L41.62 86.47C38.39 87.31 36 90.24 36 93.73L36 96.23L28.5 96.23C27.12 96.23 26 97.35 26 98.73C26 100.11 27.12 101.23 28.5 101.23L39.91 101.23L39.91 101.23L82.09 101.23L93.5 101.23C94.88 101.23 96 100.11 96 98.73C96 97.35 94.88 96.23 93.5 96.23L86 96.23L86 93.73C86 90.24 83.61 87.31 80.38 86.47L76.97 76.23L110.95 76.23C116.49 76.23 121 71.72 121 66.18L121 11.28C121 5.74 116.49 1.23 110.95 1.23ZM78.5 91.23C79.88 91.23 81 92.35 81 93.73L81 96.23L41 96.23L41 93.73C41 92.35 42.12 91.23 43.5 91.23L78.5 91.23L78.5 91.23ZM46.97 86.23L50.3 76.23L71.7 76.23L75.03 86.23L46.97 86.23ZM116 66.18C116 68.97 113.74 71.23 110.95 71.23L73.5 71.23L48.5 71.23L11.05 71.23C8.26 71.23 6 68.97 6 66.18L6 63.73L100.97 63.73C102.35 63.73 103.47 62.61 103.47 61.23C103.47 59.85 102.35 58.73 100.97 58.73L6 58.73L6 11.28C6 8.5 8.26 6.23 11.05 6.23L110.95 6.23C113.72 6.23 115.97 8.47 116 11.23L21.43 11.23C20.05 11.23 18.93 12.35 18.93 13.73C18.93 15.11 20.05 16.23 21.43 16.23L116 16.23L116 66.18L116 66.18ZM46.19 42.27L46.19 42.27C46.38 43.38 47.31 44.26 48.48 44.34L67.55 45.6L67.55 45.6C68.85 45.69 70.02 44.74 70.18 43.43L71.78 30.8L72.26 27.02L75.59 27.03C76.96 27.04 78.08 25.93 78.09 24.55C78.09 23.18 76.98 22.06 75.61 22.05L70.08 22.03C68.81 22.02 67.75 22.97 67.6 24.21L66.84 30.18L65.54 40.47L50.77 39.49L49.39 31.75L59.31 31.75C60.69 31.75 61.81 30.63 61.81 29.25C61.81 27.87 60.69 26.75 59.31 26.75L46.4 26.75L46.4 26.75C46.26 26.75 46.12 26.76 45.97 26.79C44.61 27.02 43.7 28.32 43.94 29.68L46.19 42.27ZM52.42 47.94C51.04 47.94 49.92 49.06 49.92 50.44C49.92 51.81 51.04 52.94 52.42 52.94C53.79 52.94 54.92 51.81 54.92 50.44C54.92 49.06 53.79 47.94 52.42 47.94ZM65.16 47.94C63.79 47.94 62.66 49.06 62.66 50.44C62.66 51.81 63.79 52.94 65.16 52.94C66.54 52.94 67.66 51.81 67.66 50.44C67.66 49.06 66.54 47.94 65.16 47.94ZM13.77 11.23L12.64 11.23C11.26 11.23 10.14 12.35 10.14 13.73C10.14 15.11 11.26 16.23 12.64 16.23L13.77 16.23C15.15 16.23 16.27 15.11 16.27 13.73C16.27 12.35 15.15 11.23 13.77 11.23ZM108.19 63.73L109.25 63.73C110.63 63.73 111.75 62.61 111.75 61.23C111.75 59.85 110.63 58.73 109.25 58.73L108.19 58.73C106.81 58.73 105.69 59.85 105.69 61.23C105.69 62.61 106.81 63.73 108.19 63.73Z" />
		</g>
	</g>
</svg>