<svg xmlns="http://www.w3.org/2000/svg" viewBox="0 0 106 104" width="106" height="104">
	<style>
		tspan { white-space:pre }
		.shp0 { fill: #ffffff } 
	</style>
	<g id="Sell &amp; Buy">
		<g id="2">
			<path id="Icon" class="shp0" d="M91.29 82.76L96.04 78.01C96.28 77.84 96.48 77.62 96.64 77.34C103.03 65.85 104.62 52.48 101.1 39.71C97.58 26.92 89.36 16.24 77.95 9.65C66.43 3 52.96 1.24 40.02 4.71C27.09 8.18 16.3 16.44 9.65 27.97C3 39.5 1.24 52.98 4.71 65.93C8.17 78.88 16.43 89.67 27.95 96.33C29.55 97.25 31.2 98.09 32.89 98.83L32.12 98.83C30.97 98.83 30.03 99.76 30.03 100.91C30.03 102.06 30.97 103 32.12 103L52.79 103C52.79 103 52.8 103 52.81 103C52.82 103 52.82 103 52.82 103C52.83 103 52.84 103 52.85 103L73.79 103C74.94 103 75.87 102.06 75.87 100.91C75.87 99.76 74.94 98.83 73.79 98.83L72.89 98.83C74.28 98.22 75.65 97.55 76.99 96.82C77.26 96.72 77.5 96.56 77.71 96.36L82.7 91.36L93.72 102.39C94.11 102.78 94.64 103 95.19 103C95.75 103 96.28 102.78 96.67 102.39L102.31 96.74C103.12 95.93 103.12 94.61 102.31 93.79L91.29 82.76ZM30.03 92.72C19.48 86.62 11.91 76.72 8.73 64.85C5.56 52.98 7.16 40.62 13.26 30.05C19.35 19.49 29.24 11.92 41.1 8.74C52.97 5.56 65.31 7.16 75.87 13.26C96.95 25.44 104.76 52.33 93.77 73.86L69.98 67.48C69.26 67.29 68.49 67.49 67.97 68.02C67.44 68.55 67.23 69.31 67.43 70.03L73.79 93.8C60 100.8 43.37 100.42 30.03 92.72ZM95.19 97.96L84.18 86.93C83.79 86.54 83.26 86.32 82.7 86.32C82.15 86.32 81.62 86.54 81.23 86.93L77.32 90.85L72.39 72.44L90.78 77.37L86.87 81.29C86.48 81.68 86.26 82.21 86.26 82.76C86.26 83.32 86.48 83.85 86.87 84.24L97.89 95.27L95.19 97.96ZM26.29 63.31L29.59 63.31C32.48 63.31 34.5 63.09 35.64 62.63C37.64 61.84 38.64 60.04 38.64 57.22C38.64 55.82 38.33 54.72 37.71 53.94C37.08 53.16 36.15 52.62 34.9 52.32C35.97 51.97 36.75 51.4 37.25 50.63C37.74 49.86 37.99 48.83 37.99 47.54C37.99 46.02 37.58 44.84 36.77 44.02C35.96 43.2 34.7 42.7 33 42.52C31.97 42.4 30.89 42.34 29.77 42.34L26.29 42.34C24.22 42.34 23.18 43.43 23.18 45.61L23.18 60.16C23.18 61.27 23.43 62.08 23.93 62.57C24.44 63.07 25.22 63.31 26.29 63.31ZM27.27 46.71C27.27 46 27.57 45.64 28.16 45.64L30.21 45.64C31.08 45.64 31.74 45.7 32.17 45.82C32.72 46 33.14 46.26 33.43 46.6C33.72 46.95 33.86 47.51 33.86 48.28C33.86 49.45 33.42 50.22 32.53 50.6C32.11 50.78 31.27 50.87 30 50.87L27.27 50.87L27.27 46.71L27.27 46.71ZM27.27 54.13L30.18 54.13C31.51 54.13 32.43 54.23 32.94 54.43C33.95 54.85 34.46 55.65 34.46 56.84C34.46 58.3 33.98 59.22 33.03 59.6C32.54 59.8 31.73 59.9 30.6 59.9L28.4 59.9C27.99 59.9 27.69 59.81 27.53 59.63C27.36 59.45 27.27 59.16 27.27 58.77L27.27 54.13L27.27 54.13ZM71.72 62.45C71.72 63.05 71.98 63.34 72.52 63.34L75.01 63.34C75.25 63.34 75.45 63.26 75.6 63.11C75.76 62.95 75.84 62.73 75.84 62.45L75.84 54.49L82.37 43.86C82.61 43.44 82.73 43.12 82.73 42.91C82.73 42.67 82.61 42.5 82.37 42.4C82.07 42.3 81.08 42.25 79.37 42.25C78.9 42.25 78.49 42.55 78.16 43.14C76.08 46.57 74.66 49 73.91 50.45C73 48.69 71.6 46.23 69.7 43.08C69.38 42.53 68.98 42.25 68.51 42.25C66.51 42.25 65.4 42.29 65.19 42.37C64.93 42.49 64.8 42.68 64.8 42.93C64.8 43.15 64.93 43.48 65.19 43.91L71.72 54.61L71.72 62.45L71.72 62.45ZM59.88 42.31L57.48 42.31C56.94 42.31 56.68 42.59 56.68 43.14L56.68 55.95C56.68 57.47 56.46 58.54 56.02 59.15C55.51 59.91 54.34 60.28 52.52 60.28C50.84 60.28 49.72 59.89 49.17 59.1C48.75 58.52 48.54 57.45 48.54 55.89L48.54 43.14C48.54 42.59 48.32 42.31 47.86 42.31L45.25 42.31C44.72 42.31 44.45 42.59 44.45 43.14L44.45 55C44.45 57.81 44.67 59.69 45.1 60.64C46.05 62.7 48.45 63.73 52.28 63.73C56.06 63.73 58.54 62.77 59.7 60.85C60.06 60.23 60.3 59.49 60.42 58.62C60.54 57.75 60.59 56.52 60.59 54.94L60.59 43.14C60.59 42.59 60.36 42.31 59.88 42.31ZM43.25 89.24C30.35 85.79 20.18 75.62 16.73 62.7C16.43 61.59 15.29 60.93 14.18 61.23C13.06 61.53 12.4 62.67 12.7 63.79C16.54 78.13 27.83 89.43 42.17 93.27C42.35 93.32 42.53 93.34 42.71 93.34C43.63 93.34 44.47 92.73 44.72 91.8C45.02 90.69 44.36 89.54 43.25 89.24ZM89.18 43.28C89.43 44.21 90.27 44.82 91.19 44.82C91.37 44.82 91.55 44.8 91.73 44.75C92.84 44.45 93.5 43.31 93.2 42.2C89.36 27.85 78.07 16.55 63.74 12.71C62.63 12.41 61.48 13.07 61.18 14.18C60.89 15.3 61.55 16.44 62.66 16.74C75.56 20.2 85.72 30.37 89.18 43.28ZM51.71 90.5C51.18 90.48 50.65 90.46 50.15 90.42C49 90.33 48 91.19 47.91 92.34C47.83 93.49 48.69 94.49 49.83 94.58C50.4 94.62 50.98 94.65 51.56 94.67C51.59 94.67 51.61 94.67 51.64 94.67C52.75 94.67 53.68 93.78 53.72 92.66C53.76 91.51 52.86 90.54 51.71 90.5ZM54.2 15.48C54.73 15.5 55.25 15.53 55.76 15.56C55.81 15.57 55.86 15.57 55.92 15.57C57 15.57 57.91 14.74 57.99 13.64C58.08 12.49 57.22 11.49 56.07 11.4C55.51 11.36 54.93 11.33 54.34 11.31C53.19 11.27 52.23 12.17 52.19 13.32C52.15 14.47 53.05 15.44 54.2 15.48Z" />
		</g>
	</g>
</svg>